<svg xmlns="http://www.w3.org/2000/svg" fill="#FFFFFF" viewBox="0 0 48 48" width="144px" height="144px">
    <path
        d="M 24.023438 2.0332031 C 18.067504 2.0332031 13.774735 3.7145687 10.826172 6.2089844 C 7.877609 8.7034001 6.313233 11.931604 5.484375 14.853516 C 5.1235624 16.124673 4.0406479 18.458595 3.0644531 20.363281 C 2.0882583 22.267968 1.21875 23.796875 1.21875 23.796875 A 1.50015 1.50015 0 0 0 1.0507812 24.828125 C 3.000134 34.702446 7.3172507 41.771997 12.994141 47.132812 A 1.50015 1.50015 0 0 0 15.4375 45.542969 C 15.087457 44.551988 14.786992 43.515029 14.525391 42.451172 C 15.538639 43.272823 16.683114 44.100635 17.890625 44.833984 C 19.880291 46.042355 21.891788 47.048828 23.912109 47.048828 C 25.932431 47.048828 27.945847 46.042507 29.935547 44.833984 C 31.171997 44.082977 32.343005 43.232036 33.373047 42.390625 C 33.137587 43.470901 32.875454 44.55866 32.576172 45.644531 A 1.50015 1.50015 0 0 0 35.126953 47.058594 C 40.681929 41.031222 45.541872 34.158459 46.009766 24.611328 A 1.50015 1.50015 0 0 0 45.755859 23.701172 C 45.755859 23.701172 45.452041 23.26722 44.859375 21.884766 C 44.266709 20.502311 43.441692 18.255586 42.574219 14.888672 C 41.80978 11.920723 40.235834 8.6816708 37.267578 6.1914062 C 34.299323 3.7011418 29.977785 2.0332031 24.023438 2.0332031 z M 24.023438 5.0332031 C 29.428089 5.0332031 32.950146 6.4869988 35.337891 8.4902344 C 37.725635 10.49347 39.021361 13.118667 39.669922 15.636719 C 40.571449 19.135804 41.441979 21.527861 42.101562 23.066406 C 42.589343 24.204203 42.785787 24.476803 42.962891 24.773438 C 42.581501 31.035694 40.168076 35.988467 36.765625 40.472656 C 36.92139 39.612056 37.057319 38.763692 37.181641 37.923828 C 37.253106 37.637925 37.302734 37.347595 37.302734 37.050781 A 1.50015 1.50015 0 0 0 37.302734 37.044922 C 38.145526 30.897432 38.200419 25.492276 38.011719 22.449219 C 37.976619 21.879422 37.670716 21.455971 37.417969 21.214844 C 37.165222 20.973716 36.926999 20.84232 36.689453 20.726562 C 36.214361 20.495048 35.713789 20.347722 35.128906 20.207031 C 33.959141 19.925649 32.478069 19.710704 30.861328 19.539062 C 28.164964 19.252803 25.401388 19.185032 23.105469 19.181641 L 23.105469 14.529297 A 1.50015 1.50015 0 0 0 20.695312 13.337891 C 20.695312 13.337891 17.649121 15.687659 15.679688 19.263672 C 14.179645 19.450044 12.399157 19.670454 11.007812 20.160156 A 1.50015 1.50015 0 0 0 10.007812 21.515625 C 9.8822078 24.625343 9.7586312 30.601836 10.539062 36.837891 A 1.50015 1.50015 0 0 0 10.525391 37.050781 C 10.525391 37.427042 10.598325 37.795629 10.712891 38.150391 C 10.829475 38.948968 10.953015 39.749078 11.103516 40.544922 C 7.9030825 36.377747 5.4890801 31.28 4.125 24.724609 C 4.345847 24.332362 4.8833156 23.390999 5.734375 21.730469 C 6.7431802 19.762155 7.8619532 17.458717 8.3691406 15.671875 C 9.0862826 13.143787 10.389985 10.508084 12.763672 8.5 C 15.137359 6.4919157 18.62037 5.0332031 24.023438 5.0332031 z M 20.105469 18.279297 L 20.105469 20.609375 A 1.50015 1.50015 0 0 0 21.650391 22.107422 C 23.763053 22.043992 27.460404 22.195971 30.544922 22.523438 C 32.087181 22.687171 33.492 22.89796 34.427734 23.123047 C 34.712748 23.191607 34.830778 23.245843 35.005859 23.306641 C 35.027686 23.741763 35.042719 24.254946 35.054688 24.775391 C 33.227892 23.815203 31.457402 23.533168 30.015625 23.544922 C 27.994045 23.561402 26.615234 24.132812 26.615234 24.132812 A 1.0002034 1.0002034 0 1 0 27.414062 25.966797 C 27.414062 25.966797 28.140518 25.652394 29.271484 25.527344 C 29.066749 25.864564 28.916654 26.254618 28.861328 26.693359 C 28.748328 27.594359 29.028875 28.454063 29.546875 29.039062 L 32.707031 29.019531 C 33.055031 28.621531 33.306813 28.096328 33.382812 27.486328 C 33.444225 26.99965 33.381537 26.528463 33.238281 26.101562 C 33.830198 26.344697 34.441482 26.667618 35.064453 27.103516 C 35.033708 29.759905 34.843166 33.0324 34.373047 36.583984 A 1.50015 1.50015 0 0 0 34.302734 37.050781 C 34.302734 37.243488 34.241204 37.400308 34.128906 37.527344 A 1.50015 1.50015 0 0 0 34.126953 37.53125 A 1.50015 1.50015 0 0 0 34.119141 37.539062 C 33.823373 37.86903 33.408944 38.301965 32.945312 38.763672 A 1.50015 1.50015 0 0 0 32.927734 38.783203 C 31.884027 39.817975 30.141356 41.199038 28.378906 42.269531 C 26.606606 43.346008 24.726788 44.048828 23.912109 44.048828 C 23.097431 44.048828 21.219599 43.345911 19.447266 42.269531 C 17.676251 41.193953 15.916947 39.801637 14.875 38.765625 C 14.874224 38.764854 14.871894 38.764472 14.871094 38.763672 C 14.844714 38.736412 13.944894 37.806262 13.701172 37.533203 L 13.712891 37.552734 C 13.686495 37.522304 13.660838 37.485057 13.634766 37.458984 L 13.699219 37.527344 C 13.656369 37.478853 13.627272 37.42015 13.599609 37.361328 C 13.117885 33.755988 12.959851 30.16364 12.949219 27.152344 C 13.581513 26.705995 14.202061 26.380272 14.802734 26.132812 C 14.667242 26.551769 14.608024 27.011282 14.667969 27.486328 C 14.743969 28.096328 14.993797 28.621531 15.341797 29.019531 L 18.503906 29.039062 C 19.021906 28.454063 19.302453 27.594359 19.189453 26.693359 C 19.13578 26.267724 18.993778 25.887305 18.798828 25.556641 C 19.917629 25.68299 20.634766 25.992187 20.634766 25.992188 A 1.0002034 1.0002034 0 1 0 21.433594 24.158203 C 21.433594 24.158203 20.052689 23.588467 18.03125 23.572266 C 16.580711 23.560641 14.799094 23.845734 12.960938 24.820312 C 12.973834 24.087749 12.993457 23.404456 13.013672 22.802734 C 14.160446 22.525348 15.59037 22.237048 16.78125 22.099609 A 1.50015 1.50015 0 0 0 17.960938 21.257812 C 18.530893 20.070407 19.345198 19.162856 20.105469 18.279297 z M 22.765625 34.052734 C 22.561625 34.048734 22.374969 34.169422 22.292969 34.357422 C 22.210969 34.544422 22.251531 34.762203 22.394531 34.908203 C 22.812531 35.449203 23.401953 36.035828 24.001953 36.048828 C 24.636953 36.062828 25.287953 35.438109 25.751953 34.912109 C 25.890953 34.773109 25.932375 34.566766 25.859375 34.384766 C 25.786375 34.203766 25.612016 34.082125 25.416016 34.078125 C 24.654016 34.061125 23.553625 34.037734 22.765625 34.052734 z M 27.488281 38.048828 C 26.070281 38.048828 22.142953 38.048125 20.626953 38.078125 C 20.476953 38.078125 20.332281 38.146672 20.238281 38.263672 C 20.143281 38.380672 20.107672 38.534641 20.138672 38.681641 C 20.657672 40.037641 22.733672 41.056641 24.013672 41.056641 C 25.322672 41.056641 27.462359 39.991797 27.943359 38.591797 C 27.967359 38.457797 27.929797 38.319844 27.841797 38.214844 C 27.754797 38.109844 27.625281 38.048828 27.488281 38.048828 z" />
</svg>