<?xml version="1.0"?>
<svg xmlns="http://www.w3.org/2000/svg" viewBox="0 0 30 30" fill="#FFFFFF" width="120px" height="120px">
    <path
        d="M 15 5 C 12.638856 5 11.07872 5.7322734 10.140625 6.8828125 C 9.3995087 6.3315497 8.4906663 6 7.5 6 C 5.025 6 3 8.025 3 10.5 C 3 12.975 5.025 15 7.5 15 C 8.4899789 15 9.3958822 14.663751 10.136719 14.113281 C 10.527041 14.593222 11.024115 15.001085 11.644531 15.3125 C 10.131598 15.88415 8 17.201056 8 18.888672 C 8 19.499672 8.5003281 20 9.1113281 20 C 9.7223281 20 10.222656 19.499672 10.222656 18.888672 C 10.222656 18.384543 10.642302 17.966089 11.146484 17.527344 C 11.05383 17.992842 11 18.535746 11 19.1875 C 11 21.017031 11.39212 22.183552 12.035156 22.912109 C 10.345513 23.12286 9.7832031 24.723622 9.7832031 25.113281 C 9.7832031 25.530281 10.251141 26.000953 11.869141 26.001953 C 13.330141 26.001953 14.478516 25.84475 14.478516 25.21875 C 14.478516 24.875889 14.36892 24.385143 14.125 23.939453 C 14.406778 23.977966 14.698166 24 15 24 C 15.301834 24 15.593222 23.977966 15.875 23.939453 C 15.63108 24.385143 15.521484 24.875889 15.521484 25.21875 C 15.521484 25.84475 16.669859 26.001953 18.130859 26.001953 C 19.748859 26.000953 20.216797 25.530281 20.216797 25.113281 C 20.216797 24.723622 19.654487 23.12286 17.964844 22.912109 C 18.60788 22.183552 19 21.017031 19 19.1875 C 19 18.535746 18.94617 17.992842 18.853516 17.527344 C 19.357698 17.965961 19.777344 18.384543 19.777344 18.888672 C 19.777344 19.499672 20.277672 20 20.888672 20 C 21.499672 20 22 19.499672 22 18.888672 C 22 17.201056 19.868402 15.88415 18.355469 15.3125 C 18.974048 15.002007 19.469565 14.595275 19.859375 14.117188 C 20.600491 14.66845 21.509334 15 22.5 15 C 24.975 15 27 12.975 27 10.5 C 27 8.025 24.975 6 22.5 6 C 21.509334 6 20.600491 6.3315497 19.859375 6.8828125 C 18.92128 5.7322734 17.361144 5 15 5 z M 15 7 C 17.729 7 19 8.112 19 10.5 C 19 12.888 17.729 14 15 14 C 12.271 14 11 12.888 11 10.5 C 11 8.112 12.271 7 15 7 z M 12.5 8 C 12.224 8 12 8.224 12 8.5 C 12 8.776 12.224 9 12.5 9 L 13.5 9 C 13.776 9 14 8.776 14 8.5 C 14 8.224 13.776 8 13.5 8 L 12.5 8 z M 16.5 8 C 16.224 8 16 8.224 16 8.5 C 16 8.776 16.224 9 16.5 9 L 17.5 9 C 17.776 9 18 8.776 18 8.5 C 18 8.224 17.776 8 17.5 8 L 16.5 8 z M 13 10 C 12.45 10 12 10.45 12 11 C 12 11.55 12.45 12 13 12 C 13.55 12 14 11.55 14 11 C 14 10.853 13.96425 10.715844 13.90625 10.589844 C 13.84625 10.649844 13.76025 10.685547 13.65625 10.685547 C 13.45025 10.685547 13.314453 10.547797 13.314453 10.341797 C 13.314453 10.238797 13.348203 10.15375 13.408203 10.09375 C 13.283203 10.03675 13.147 10 13 10 z M 17 10 C 16.45 10 16 10.45 16 11 C 16 11.55 16.45 12 17 12 C 17.55 12 18 11.55 18 11 C 18 10.853 17.96425 10.715844 17.90625 10.589844 C 17.84625 10.649844 17.76025 10.685547 17.65625 10.685547 C 17.45025 10.685547 17.314453 10.547797 17.314453 10.341797 C 17.314453 10.238797 17.348203 10.15375 17.408203 10.09375 C 17.283203 10.03675 17.147 10 17 10 z M 15 12 L 14 13 L 16 13 L 15 12 z M 13.947266 15.939453 C 14.281104 15.974607 14.627151 16 15 16 C 15.372849 16 15.718896 15.974607 16.052734 15.939453 C 16.56025 16.729436 17 17.891308 17 18.955078 C 17 20.774078 16.12 21 15 21 C 13.88 21 13 20.773078 13 18.955078 C 13 17.891892 13.43975 16.729619 13.947266 15.939453 z" />
</svg>